<?xml version="1.0" standalone="no"?>
<!DOCTYPE svg PUBLIC "-//W3C//DTD SVG 20010904//EN"
 "http://www.w3.org/TR/2001/REC-SVG-20010904/DTD/svg10.dtd">
<svg version="1.0" xmlns="http://www.w3.org/2000/svg"
 width="1024.000000pt" height="1024.000000pt" viewBox="0 0 1024.000000 1024.000000"
 preserveAspectRatio="xMidYMid meet">

<g transform="translate(0.000000,1024.000000) scale(0.100000,-0.100000)"
fill="#1e4620" stroke="none">
<path d="M5045 8346 c-59 -26 -192 -134 -283 -231 -443 -469 -611 -1225 -421
-1897 95 -338 275 -630 544 -886 l105 -99 0 -694 -1 -693 -59 59 -60 59 0 176
c0 383 -65 679 -215 985 -108 219 -232 391 -394 547 -314 304 -733 488 -1116
492 -113 1 -136 -2 -176 -20 -52 -24 -80 -58 -102 -124 -45 -133 -53 -434 -17
-645 147 -871 842 -1512 1740 -1605 l105 -11 146 -146 147 -145 0 -724 c1
-638 3 -726 17 -753 46 -90 175 -92 232 -4 17 25 18 73 21 759 l2 732 144 139
144 140 114 12 c322 34 632 145 893 319 223 149 385 310 536 536 237 353 353
776 320 1175 -17 214 -52 300 -138 343 -44 21 -60 23 -178 22 -354 -4 -739
-162 -1047 -429 -288 -250 -527 -657 -623 -1061 -39 -163 -55 -317 -55 -527
l0 -193 -55 -54 -55 -54 0 693 0 694 93 91 c421 412 620 879 620 1456 0 350
-66 630 -218 935 -76 151 -161 275 -275 397 -85 92 -218 199 -285 229 -47 22
-108 24 -150 5z"/>
</g>
</svg>
